Coordinates
version=1
nRows=19
nColumns=24
inDegrees=yes

Units are S.I. units (second, meters, Newtons, ...)
Angles are in degrees.

endheader
time	pelvis_tilt	pelvis_list	pelvis_rotation	pelvis_tx	pelvis_ty	pelvis_tz	hip_flexion_r	hip_adduction_r	hip_rotation_r	knee_angle_r	ankle_angle_r	subtalar_angle_r	mtp_angle_r	hip_flexion_l	hip_adduction_l	hip_rotation_l	knee_angle_l	ankle_angle_l	subtalar_angle_l	mtp_angle_l	lumbar_extension	lumbar_bending	lumbar_rotation
      4.56000000	     92.94019035	     17.17090870	    -93.65103410	      0.35327801	      0.29236128	      1.01733305	     -3.36833349	    -11.41907975	     -0.81829263	    -42.88415445	    -37.73572706	     -1.74545602	    -25.17324631	    -12.20627614	    -16.64962710	    -10.49767664	    -60.44408421	    -23.25435209	     -0.14557499	     73.45799169	      0.00000000	      0.00000000	      0.00000000
      4.57000000	     92.94043746	     17.16133014	    -93.64716990	      0.35325438	      0.29235512	      1.01736729	     -3.36446768	    -11.41757236	     -0.83746487	    -42.82837602	    -37.83549882	     -1.74545602	    -25.17324631	    -12.21540917	    -16.64559105	    -10.49775202	    -60.42396865	    -23.25543451	     -0.14557499	     73.45799169	      0.00000000	      0.00000000	      0.00000000
      4.58000000	     92.93815196	     17.15463252	    -93.64408212	      0.35324118	      0.29236150	      1.01739040	     -3.36093099	    -11.41327602	     -0.85511981	    -42.77642195	    -37.91271688	     -1.74545602	    -25.17324631	    -12.22316144	    -16.64295647	    -10.49973252	    -60.40476411	    -23.25428982	     -0.14557499	     73.45799169	      0.00000000	      0.00000000	      0.00000000
      4.59000000	     92.93384445	     17.15079435	    -93.64208298	      0.35323537	      0.29238534	      1.01739434	     -3.35877885	    -11.40585697	     -0.87095938	    -42.72926063	    -37.96449464	     -1.74545602	    -25.17324631	    -12.22865937	    -16.64189014	    -10.50334446	    -60.38726387	    -23.25146492	     -0.14557499	     73.45799169	      0.00000000	      0.00000000	      0.00000000
      4.60000000	     92.92871216	     17.14836986	    -93.64067402	      0.35322605	      0.29241145	      1.01739749	     -3.35804167	    -11.39593638	     -0.88515990	    -42.68790672	    -37.99152023	     -1.74545602	    -25.17324631	    -12.23141866	    -16.64204831	    -10.50789961	    -60.37209008	    -23.24785082	     -0.14557499	     73.45799169	      0.00000000	      0.00000000	      0.00000000
      4.61000000	     92.92404695	     17.14582636	    -93.63905732	      0.35320808	      0.29242694	      1.01740337	     -3.35828053	    -11.38484909	     -0.89824810	    -42.65319226	    -37.99764852	     -1.74545602	    -25.17324631	    -12.23179685	    -16.64288381	    -10.51240651	    -60.35972961	    -23.24444497	     -0.14557499	     73.45799169	      0.00000000	      0.00000000	      0.00000000
      4.62000000	     92.92065466	     17.14241217	    -93.63673325	      0.35318796	      0.29243208	      1.01740257	     -3.35921252	    -11.37401129	     -0.91090009	    -42.62568142	    -37.98887395	     -1.74545602	    -25.17324631	    -12.23081027	    -16.64379772	    -10.51586993	    -60.35045461	    -23.24207750	     -0.14557499	     73.45799169	      0.00000000	      0.00000000	      0.00000000
      4.63000000	     92.91863834	     17.13804418	    -93.63369336	      0.35317274	      0.29243438	      1.01739336	     -3.36082062	    -11.36440473	     -0.92366560	    -42.60557410	    -37.97198547	     -1.74545602	    -25.17324631	    -12.22965276	    -16.64423422	    -10.51763077	    -60.34420925	    -23.24116908	     -0.14557499	     73.45799169	      0.00000000	      0.00000000	      0.00000000
      4.64000000	     92.91764526	     17.13285649	    -93.63027704	      0.35316235	      0.29243947	      1.01738501	     -3.36322651	    -11.35640139	     -0.93674279	    -42.59265516	    -37.95328723	     -1.74545602	    -25.17324631	    -12.22931384	    -16.64381862	    -10.51757342	    -60.34056921	    -23.24161324	     -0.14557499	     73.45799169	      0.00000000	      0.00000000	      0.00000000
      4.65000000	     92.91724691	     17.12700908	    -93.62689710	      0.35315420	      0.29244760	      1.01738364	     -3.36664344	    -11.34992841	     -0.94993063	    -42.58634505	    -37.93768831	     -1.74545602	    -25.17324631	    -12.23044529	    -16.64244538	    -10.51612720	    -60.33881794	    -23.24285832	     -0.14557499	     73.45799169	      0.00000000	      0.00000000	      0.00000000
      4.66000000	     92.91710275	     17.12065928	    -93.62384180	      0.35314799	      0.29245576	      1.01738539	     -3.37132186	    -11.34482655	     -0.96278242	    -42.58577950	    -37.92828816	     -1.74545602	    -25.17324631	    -12.23336662	    -16.64027428	    -10.51405643	    -60.33810696	    -23.24416896	     -0.14557499	     73.45799169	      0.00000000	      0.00000000	      0.00000000
      4.67000000	     92.91698085	     17.11394268	    -93.62127173	      0.35314401	      0.29246239	      1.01738544	     -3.37740243	    -11.34110108	     -0.97488605	    -42.58988646	    -37.92643013	     -1.74545602	    -25.17324631	    -12.23812834	    -16.63766717	    -10.51212861	    -60.33766664	    -23.24495112	     -0.14557499	     73.45799169	      0.00000000	      0.00000000	      0.00000000
      4.68000000	     92.91678565	     17.10705369	    -93.61928943	      0.35314025	      0.29246808	      1.01738495	     -3.38481196	    -11.33890163	     -0.98610422	    -42.59752831	    -37.93209415	     -1.74545602	    -25.17324631	    -12.24463556	    -16.63501134	    -10.51084903	    -60.33702576	    -23.24498841	     -0.14557499	     73.45799169	      0.00000000	      0.00000000	      0.00000000
      4.69000000	     92.91652733	     17.10031762	    -93.61794700	      0.35313428	      0.29247242	      1.01738759	     -3.39329197	    -11.33836476	     -0.99659406	    -42.60772853	    -37.94442542	     -1.74545602	    -25.17324631	    -12.25271685	    -16.63248268	    -10.51036134	    -60.33613569	    -23.24449283	     -0.14557499	     73.45799169	      0.00000000	      0.00000000	      0.00000000
      4.70000000	     92.91630956	     17.09406937	    -93.61722331	      0.35312756	      0.29247528	      1.01739400	     -3.40252239	    -11.33946965	     -1.00660782	    -42.61992590	    -37.96217384	     -1.74545602	    -25.17324631	    -12.26203258	    -16.62999758	    -10.51045694	    -60.33531636	    -23.24398611	     -0.14557499	     73.45799169	      0.00000000	      0.00000000	      0.00000000
      4.71000000	     92.91638146	     17.08846537	    -93.61698480	      0.35312370	      0.29247877	      1.01740149	     -3.41224017	    -11.34202669	     -1.01627089	    -42.63413445	    -37.98386787	     -1.74545602	    -25.17324631	    -12.27195916	    -16.62742061	    -10.51064613	    -60.33507973	    -23.24410718	     -0.14557499	     73.45799169	      0.00000000	      0.00000000	      0.00000000
      4.72000000	     92.91700629	     17.08349975	    -93.61693220	      0.35312316	      0.29248147	      1.01740795	     -3.42229126	    -11.34588700	     -1.02547957	    -42.65088442	    -38.00765899	     -1.74545602	    -25.17324631	    -12.28164309	    -16.62478779	    -10.51031364	    -60.33596688	    -23.24543294	     -0.14557499	     73.45799169	      0.00000000	      0.00000000	      0.00000000
      4.73000000	     92.91831476	     17.07914815	    -93.61662238	      0.35312384	      0.29248018	      1.01741278	     -3.43255330	    -11.35102092	     -1.03389520	    -42.67093709	    -38.03091998	     -1.74545602	    -25.17324631	    -12.29024230	    -16.62234952	    -10.50894352	    -60.33847207	    -23.24834122	     -0.14557499	     73.45799169	      0.00000000	      0.00000000	      0.00000000
      4.74000000	     92.92038449	     17.07537442	    -93.61562250	      0.35312384	      0.29247839	      1.01741401	     -3.44273591	    -11.35726733	     -1.04101996	    -42.69489879	    -38.04980511	     -1.74545602	    -25.17324631	    -12.29719843	    -16.62045573	    -10.50632677	    -60.34302455	    -23.25290553	     -0.14557499	     73.45799169	      0.00000000	      0.00000000	      0.00000000
